<svg width="593" height="592" viewBox="0 0 593 592" fill="none" xmlns="http://www.w3.org/2000/svg">
<path d="M592.85 430.637V561.867C592.85 564.481 592.475 566.908 591.918 569.148C589.303 582.028 577.918 591.736 564.48 591.736L28.187 591.731C13.8123 591.731 1.86967 580.715 0.375 566.715C0 565.033 0 563.543 0 561.673V430.444C0 414.949 12.6927 402.444 28 402.444C35.6511 402.444 42.7453 405.616 47.7867 410.657C52.828 415.699 56.0003 422.793 56.0003 430.444V535.537H537.04V430.444C537.04 414.949 549.733 402.444 565.04 402.444C572.691 402.444 579.786 405.616 584.827 410.658C589.681 415.892 592.853 422.986 592.853 430.636L592.85 430.637Z" fill="black"/>
<path d="M457.89 299.224L320.316 436.797C320.129 437.172 319.754 437.36 319.572 437.542C314.53 442.584 307.999 445.756 301.468 446.688C300.905 446.688 300.348 446.876 299.785 446.876C298.665 447.063 297.546 447.063 296.426 447.063L293.254 446.876C292.692 446.876 292.134 446.688 291.572 446.688C284.853 445.756 278.504 442.584 273.468 437.542C273.28 437.355 272.905 436.98 272.723 436.797L135.15 299.224C128.801 292.875 125.629 284.479 125.629 276.079C125.629 267.678 128.801 259.276 135.15 252.933C147.842 240.241 168.562 240.241 181.442 252.933L264.135 335.627L264.13 32.6667C264.13 14.7453 278.875 0 296.797 0C305.755 0 313.968 3.7344 319.942 9.5208C325.916 15.4948 329.463 23.5208 329.463 32.6661V335.626L412.156 252.933C424.849 240.24 445.568 240.24 458.448 252.933C470.583 265.813 470.583 286.531 457.891 299.225L457.89 299.224Z" fill="black"/>
</svg>
