<svg width="570" height="570" viewBox="0 0 570 570" fill="none" xmlns="http://www.w3.org/2000/svg">
<path fill-rule="evenodd" clip-rule="evenodd" d="M311.408 25.88C311.408 11.5887 299.825 0.00534058 285.533 0.00534058L285.528 0H25.8747C11.9531 0.604 0.604173 11.984 0 25.8747V543.515C0.604 557.436 11.984 568.785 25.8747 569.389H543.515C557.436 568.785 568.785 557.405 569.389 543.515V283.861C569.389 269.57 557.807 257.987 543.515 257.987C536.655 257.987 530.077 260.716 525.217 265.565C520.368 270.414 517.639 277.003 517.639 283.862V517.649H51.7459V51.7555H285.533C292.392 51.7555 298.981 49.0263 303.83 44.1773C308.679 39.3173 311.408 32.7393 311.408 25.88ZM396.424 0.00534058C382.133 0.00534058 370.549 11.588 370.549 25.88L370.547 25.8743C370.547 32.7342 373.277 39.3123 378.126 44.1716C382.986 49.0206 389.564 51.7498 396.423 51.7498H481.055L266.406 266.399C256.302 276.503 256.302 292.888 266.406 302.992C276.51 313.096 292.895 313.096 303 302.992L517.642 88.3501V172.968C517.642 179.828 520.371 186.406 525.22 191.266C530.08 196.115 536.658 198.844 543.517 198.844C550.387 198.844 556.966 196.115 561.814 191.266C566.674 186.406 569.393 179.828 569.393 172.968V25.8751C568.814 12.6876 558.799 1.81268 545.773 0.0990804C545.283 0.0819748 544.79 0.0603786 544.294 0.0387151C544.036 0.0273984 543.776 0.0160634 543.517 0.00534058H396.424Z" fill="black"/>
</svg>
